<svg width="26" height="26" viewBox="0 0 26 26" fill="none" xmlns="http://www.w3.org/2000/svg">
<circle cx="13" cy="13" r="13" fill="white"/>
<path d="M17.9709 7.28863L17.9709 7.28863L17.9689 7.28645C17.5675 6.83283 16.9041 6.75816 16.4355 7.09543L16.4351 7.09575C15.9371 7.4532 15.768 8.1167 16.0467 8.66841L16.048 8.67114C16.1099 8.796 16.21 8.92305 16.3295 9.04251L16.3313 9.0443C17.7678 10.4983 18.3446 12.2735 17.8341 14.3294L17.8341 14.3296C17.3467 16.2894 16.0917 17.5916 14.2445 18.1774L14.2439 18.1775C12.4433 18.7458 10.7473 18.3828 9.29388 17.1611C8.04107 16.1107 7.39946 14.6968 7.37741 13.0317C7.35841 11.703 7.80423 10.528 8.62334 9.52523C8.69461 9.43743 8.77427 9.36628 8.83165 9.31547C8.83667 9.31103 8.84153 9.30673 8.84624 9.30256C8.90259 9.25272 8.93764 9.22171 8.96798 9.18824L8.96796 9.18822L8.97096 9.18499C9.30073 8.82902 9.38905 8.42547 9.2451 7.95202C9.09945 7.4853 8.79132 7.2203 8.32754 7.1262C7.98894 7.05824 7.68271 7.14285 7.38091 7.3852L7.3797 7.38616C6.77749 7.86593 6.35488 8.516 5.96091 9.2515C5.29889 10.4886 5.00045 11.824 5.04796 13.2449L5.04797 13.2453C5.10386 14.978 5.65231 16.5168 6.68688 17.8675C7.66911 19.147 8.8955 20.0439 10.3793 20.4968L10.3797 20.4969C12.912 21.2722 15.2522 20.8674 17.3721 19.2077L17.3723 19.2075C18.7443 18.1347 19.6462 16.7093 20.0941 14.9676L20.0945 14.9659C20.2628 14.3236 20.336 13.6623 20.339 12.9822C20.3074 10.8173 19.5663 8.97539 18.1076 7.44391L18.3973 7.16804L18.1084 7.44474C18.0771 7.41201 18.0257 7.35228 17.9948 7.31628C17.9833 7.30295 17.9747 7.29287 17.9709 7.28863Z" fill="#FE724C" stroke="white" stroke-width="0.8"/>
<path d="M11.1115 10.6563C11.1144 11.4966 11.7262 12.1934 12.5224 12.2728C13.3478 12.3584 14.0855 11.8022 14.2494 10.9649C14.2728 10.8458 14.2758 10.7235 14.2758 10.6013M11.1115 10.6563C11.1056 8.395 11.1056 7.60037 11.1115 5.33908C11.1115 4.73708 11.3837 4.26955 11.8725 3.96397C12.3819 3.64311 12.9263 3.63088 13.4474 3.93035C13.9801 4.23593 14.267 4.7218 14.2699 5.36352M11.1115 10.6563L11.5115 10.6553C11.5115 10.6552 11.5115 10.6552 11.5115 10.6552C11.5139 11.3041 11.9833 11.817 12.5621 11.8748L12.5636 11.8749C13.1758 11.9384 13.7313 11.5297 13.8569 10.8881L13.8569 10.8878C13.8722 10.81 13.8758 10.7216 13.8758 10.6023M11.1115 10.6563L11.5115 10.6549L13.8758 10.6023M14.2699 5.36352C14.2718 6.0813 14.2713 6.50093 14.2707 7.00302C14.2703 7.28755 14.2699 7.59857 14.2699 8.00533V8.00538C14.2699 9.11459 14.2699 9.49205 14.2758 10.6013M14.2699 5.36352L13.8699 5.36535C13.8699 5.36522 13.8699 5.3651 13.8699 5.36498M14.2699 5.36352L13.8699 5.36456C13.8699 5.3647 13.8699 5.36484 13.8699 5.36498M14.2758 10.6013L13.8758 10.6034C13.8758 10.603 13.8758 10.6027 13.8758 10.6023M14.2758 10.6013H13.8758C13.8758 10.6016 13.8758 10.602 13.8758 10.6023M13.8758 10.6023C13.8699 9.49289 13.8699 9.11453 13.8699 8.00533C13.8699 7.59753 13.8703 7.28621 13.8707 7.00164C13.8713 6.50023 13.8718 6.08184 13.8699 5.36498M13.8758 10.6023L11.5115 5.34011L11.5115 5.33908C11.5115 4.87803 11.7101 4.53726 12.0846 4.30315L12.0857 4.30241L12.0857 4.30241C12.4704 4.06006 12.8562 4.05193 13.2481 4.27715L13.2484 4.27733C13.6556 4.51091 13.8675 4.86418 13.8699 5.36498" fill="#FE724C" stroke="white" stroke-width="0.8"/>
</svg>
