<svg width="19" height="21" viewBox="0 0 19 21" fill="none" xmlns="http://www.w3.org/2000/svg">
<path opacity="0.4" d="M13.5164 0.916626H5.48458C2.57125 0.916626 0.875 2.62246 0.875 5.54538V15.445C0.875 18.4158 2.57125 20.0833 5.48458 20.0833H13.5164C16.4767 20.0833 18.125 18.4158 18.125 15.445V5.54538C18.125 2.62246 16.4767 0.916626 13.5164 0.916626Z" fill="#9796A1"/>
<path fill-rule="evenodd" clip-rule="evenodd" d="M5.74302 5.37268V5.38226C5.32998 5.38226 4.99552 5.71768 4.99552 6.12976C4.99552 6.54185 5.32998 6.87726 5.74302 6.87726H8.60748C9.02052 6.87726 9.35594 6.54185 9.35594 6.11922C9.35594 5.7081 9.02052 5.37268 8.60748 5.37268H5.74302ZM13.2564 11.209H5.74302C5.32998 11.209 4.99552 10.8736 4.99552 10.4615C4.99552 10.0494 5.32998 9.71302 5.74302 9.71302H13.2564C13.6684 9.71302 14.0039 10.0494 14.0039 10.4615C14.0039 10.8736 13.6684 11.209 13.2564 11.209ZM13.2565 15.5885H5.74317C5.45567 15.6268 5.17776 15.483 5.02442 15.2435C4.87109 14.9943 4.87109 14.678 5.02442 14.4385C5.17776 14.1893 5.45567 14.0551 5.74317 14.0839H13.2565C13.6389 14.1222 13.9273 14.448 13.9273 14.841C13.9273 15.2233 13.6389 15.5501 13.2565 15.5885Z" fill="#9796A1"/>
</svg>
