<svg width="21" height="17" viewBox="0 0 21 17" fill="none" xmlns="http://www.w3.org/2000/svg">
<path d="M0.4375 0.833374V2.27087C0.4375 6.24796 2.55542 9.72671 5.70833 11.6625V16.1667H20.0833V14.25C20.0833 11.7009 14.9754 10.4167 12.4167 10.4167H12.1771C7.625 10.4167 3.79167 6.58337 3.79167 2.27087V0.833374M12.4167 0.833374C11.4 0.833374 10.425 1.23724 9.70609 1.95613C8.9872 2.67502 8.58333 3.65004 8.58333 4.66671C8.58333 5.68337 8.9872 6.65839 9.70609 7.37728C10.425 8.09617 11.4 8.50004 12.4167 8.50004C13.4333 8.50004 14.4084 8.09617 15.1272 7.37728C15.8461 6.65839 16.25 5.68337 16.25 4.66671C16.25 3.65004 15.8461 2.67502 15.1272 1.95613C14.4084 1.23724 13.4333 0.833374 12.4167 0.833374Z" fill="#9796A1"/>
</svg>
